<mxfile host="app.diagrams.net" agent="Mozilla/5.0 (Windows NT 10.0; Win64; x64) AppleWebKit/537.36 (KHTML, like Gecko) Chrome/133.0.0.0 Safari/537.36" version="26.0.15">
  <diagram name="Страница — 1" id="Zj5ODRJWwaAV_673gNy1">
    <mxGraphModel dx="1050" dy="653" grid="1" gridSize="10" guides="1" tooltips="1" connect="1" arrows="1" fold="1" page="1" pageScale="1" pageWidth="1169" pageHeight="827" math="0" shadow="0">
      <root>
        <mxCell id="0" />
        <mxCell id="1" parent="0" />
        <mxCell id="pxH5V_kaZkKpWymMHhDQ-1" value="Пользователь" style="shape=umlActor;verticalLabelPosition=bottom;verticalAlign=top;html=1;outlineConnect=0;" vertex="1" parent="1">
          <mxGeometry x="60" y="90" width="30" height="60" as="geometry" />
        </mxCell>
        <mxCell id="pxH5V_kaZkKpWymMHhDQ-2" value="Веб-приложение" style="shape=umlLifeline;perimeter=lifelinePerimeter;whiteSpace=wrap;html=1;container=1;dropTarget=0;collapsible=0;recursiveResize=0;outlineConnect=0;portConstraint=eastwest;newEdgeStyle={&quot;curved&quot;:0,&quot;rounded&quot;:0};" vertex="1" parent="1">
          <mxGeometry x="200" y="10" width="100" height="470" as="geometry" />
        </mxCell>
        <mxCell id="pxH5V_kaZkKpWymMHhDQ-3" value="Система" style="shape=umlLifeline;perimeter=lifelinePerimeter;whiteSpace=wrap;html=1;container=1;dropTarget=0;collapsible=0;recursiveResize=0;outlineConnect=0;portConstraint=eastwest;newEdgeStyle={&quot;curved&quot;:0,&quot;rounded&quot;:0};" vertex="1" parent="1">
          <mxGeometry x="370" y="10" width="100" height="470" as="geometry" />
        </mxCell>
        <mxCell id="pxH5V_kaZkKpWymMHhDQ-5" value="Платежный шлюз" style="shape=umlLifeline;perimeter=lifelinePerimeter;whiteSpace=wrap;html=1;container=1;dropTarget=0;collapsible=0;recursiveResize=0;outlineConnect=0;portConstraint=eastwest;newEdgeStyle={&quot;curved&quot;:0,&quot;rounded&quot;:0};" vertex="1" parent="1">
          <mxGeometry x="550" y="10" width="100" height="470" as="geometry" />
        </mxCell>
        <mxCell id="pxH5V_kaZkKpWymMHhDQ-6" value="Система уведомлений" style="shape=umlLifeline;perimeter=lifelinePerimeter;whiteSpace=wrap;html=1;container=1;dropTarget=0;collapsible=0;recursiveResize=0;outlineConnect=0;portConstraint=eastwest;newEdgeStyle={&quot;curved&quot;:0,&quot;rounded&quot;:0};" vertex="1" parent="1">
          <mxGeometry x="710" y="10" width="100" height="470" as="geometry" />
        </mxCell>
        <mxCell id="pxH5V_kaZkKpWymMHhDQ-8" value="" style="endArrow=open;endFill=1;endSize=12;html=1;rounded=0;" edge="1" parent="1">
          <mxGeometry width="160" relative="1" as="geometry">
            <mxPoint x="90" y="130" as="sourcePoint" />
            <mxPoint x="250" y="130" as="targetPoint" />
          </mxGeometry>
        </mxCell>
        <mxCell id="pxH5V_kaZkKpWymMHhDQ-9" value="Выбор фильма и сеанса" style="text;html=1;align=center;verticalAlign=middle;resizable=0;points=[];autosize=1;strokeColor=none;fillColor=none;" vertex="1" parent="1">
          <mxGeometry x="80" y="98" width="160" height="30" as="geometry" />
        </mxCell>
        <mxCell id="pxH5V_kaZkKpWymMHhDQ-10" value="" style="endArrow=open;endFill=1;endSize=12;html=1;rounded=0;" edge="1" parent="1" target="pxH5V_kaZkKpWymMHhDQ-3">
          <mxGeometry width="160" relative="1" as="geometry">
            <mxPoint x="250" y="159.5" as="sourcePoint" />
            <mxPoint x="410" y="159.5" as="targetPoint" />
          </mxGeometry>
        </mxCell>
        <mxCell id="pxH5V_kaZkKpWymMHhDQ-11" value="Запрос доступных мест" style="text;html=1;align=center;verticalAlign=middle;resizable=0;points=[];autosize=1;strokeColor=none;fillColor=none;" vertex="1" parent="1">
          <mxGeometry x="230" y="138" width="160" height="30" as="geometry" />
        </mxCell>
        <mxCell id="pxH5V_kaZkKpWymMHhDQ-12" value="" style="endArrow=open;endFill=1;endSize=12;html=1;rounded=0;" edge="1" parent="1" source="pxH5V_kaZkKpWymMHhDQ-3">
          <mxGeometry width="160" relative="1" as="geometry">
            <mxPoint x="375" y="200" as="sourcePoint" />
            <mxPoint x="245" y="200" as="targetPoint" />
          </mxGeometry>
        </mxCell>
        <mxCell id="pxH5V_kaZkKpWymMHhDQ-13" value="Возвращает список доступных мест" style="text;html=1;align=center;verticalAlign=middle;resizable=0;points=[];autosize=1;strokeColor=none;fillColor=none;" vertex="1" parent="1">
          <mxGeometry x="220" y="168" width="220" height="30" as="geometry" />
        </mxCell>
        <mxCell id="pxH5V_kaZkKpWymMHhDQ-14" value="" style="endArrow=open;endFill=1;endSize=12;html=1;rounded=0;" edge="1" parent="1" source="pxH5V_kaZkKpWymMHhDQ-2">
          <mxGeometry width="160" relative="1" as="geometry">
            <mxPoint x="460" y="210" as="sourcePoint" />
            <mxPoint x="110" y="240" as="targetPoint" />
          </mxGeometry>
        </mxCell>
        <mxCell id="pxH5V_kaZkKpWymMHhDQ-15" value="Отображает список мест" style="text;html=1;align=center;verticalAlign=middle;resizable=0;points=[];autosize=1;strokeColor=none;fillColor=none;" vertex="1" parent="1">
          <mxGeometry x="80" y="218" width="160" height="30" as="geometry" />
        </mxCell>
        <mxCell id="pxH5V_kaZkKpWymMHhDQ-16" value="" style="endArrow=open;endFill=1;endSize=12;html=1;rounded=0;" edge="1" parent="1" target="pxH5V_kaZkKpWymMHhDQ-2">
          <mxGeometry width="160" relative="1" as="geometry">
            <mxPoint x="100" y="280" as="sourcePoint" />
            <mxPoint x="360" y="320" as="targetPoint" />
          </mxGeometry>
        </mxCell>
        <mxCell id="pxH5V_kaZkKpWymMHhDQ-17" value="Выбор мест" style="text;html=1;align=center;verticalAlign=middle;resizable=0;points=[];autosize=1;strokeColor=none;fillColor=none;" vertex="1" parent="1">
          <mxGeometry x="115" y="258" width="90" height="30" as="geometry" />
        </mxCell>
        <mxCell id="pxH5V_kaZkKpWymMHhDQ-19" value="" style="endArrow=open;endFill=1;endSize=12;html=1;rounded=0;" edge="1" parent="1">
          <mxGeometry width="160" relative="1" as="geometry">
            <mxPoint x="260" y="280" as="sourcePoint" />
            <mxPoint x="420" y="280" as="targetPoint" />
          </mxGeometry>
        </mxCell>
        <mxCell id="pxH5V_kaZkKpWymMHhDQ-20" value="Резервирование мест" style="text;html=1;align=center;verticalAlign=middle;resizable=0;points=[];autosize=1;strokeColor=none;fillColor=none;" vertex="1" parent="1">
          <mxGeometry x="255" y="248" width="150" height="30" as="geometry" />
        </mxCell>
        <mxCell id="pxH5V_kaZkKpWymMHhDQ-21" value="" style="endArrow=open;endFill=1;endSize=12;html=1;rounded=0;" edge="1" parent="1">
          <mxGeometry width="160" relative="1" as="geometry">
            <mxPoint x="100" y="320" as="sourcePoint" />
            <mxPoint x="260" y="320" as="targetPoint" />
          </mxGeometry>
        </mxCell>
        <mxCell id="pxH5V_kaZkKpWymMHhDQ-22" value="Ввод данных для оплаты" style="text;html=1;align=center;verticalAlign=middle;resizable=0;points=[];autosize=1;strokeColor=none;fillColor=none;" vertex="1" parent="1">
          <mxGeometry x="70" y="298" width="160" height="30" as="geometry" />
        </mxCell>
        <mxCell id="pxH5V_kaZkKpWymMHhDQ-23" value="" style="endArrow=open;endFill=1;endSize=12;html=1;rounded=0;" edge="1" parent="1" target="pxH5V_kaZkKpWymMHhDQ-5">
          <mxGeometry width="160" relative="1" as="geometry">
            <mxPoint x="260" y="328" as="sourcePoint" />
            <mxPoint x="420" y="328" as="targetPoint" />
          </mxGeometry>
        </mxCell>
        <mxCell id="pxH5V_kaZkKpWymMHhDQ-24" value="Запрос на оплату" style="text;html=1;align=center;verticalAlign=middle;resizable=0;points=[];autosize=1;strokeColor=none;fillColor=none;" vertex="1" parent="1">
          <mxGeometry x="400" y="298" width="120" height="30" as="geometry" />
        </mxCell>
        <mxCell id="pxH5V_kaZkKpWymMHhDQ-25" value="" style="endArrow=open;endFill=1;endSize=12;html=1;rounded=0;" edge="1" parent="1" source="pxH5V_kaZkKpWymMHhDQ-5">
          <mxGeometry width="160" relative="1" as="geometry">
            <mxPoint x="559.5" y="360" as="sourcePoint" />
            <mxPoint x="420" y="360" as="targetPoint" />
          </mxGeometry>
        </mxCell>
        <mxCell id="pxH5V_kaZkKpWymMHhDQ-26" value="Подтверждение оплаты" style="text;html=1;align=center;verticalAlign=middle;resizable=0;points=[];autosize=1;strokeColor=none;fillColor=none;" vertex="1" parent="1">
          <mxGeometry x="410" y="338" width="160" height="30" as="geometry" />
        </mxCell>
        <mxCell id="pxH5V_kaZkKpWymMHhDQ-27" value="" style="endArrow=open;endFill=1;endSize=12;html=1;rounded=0;" edge="1" parent="1" target="pxH5V_kaZkKpWymMHhDQ-6">
          <mxGeometry width="160" relative="1" as="geometry">
            <mxPoint x="410" y="400" as="sourcePoint" />
            <mxPoint x="570" y="400" as="targetPoint" />
          </mxGeometry>
        </mxCell>
        <mxCell id="pxH5V_kaZkKpWymMHhDQ-28" value="Запрос на отправку уведомления" style="text;html=1;align=center;verticalAlign=middle;resizable=0;points=[];autosize=1;strokeColor=none;fillColor=none;" vertex="1" parent="1">
          <mxGeometry x="525" y="378" width="210" height="30" as="geometry" />
        </mxCell>
        <mxCell id="pxH5V_kaZkKpWymMHhDQ-29" value="" style="endArrow=open;endFill=1;endSize=12;html=1;rounded=0;" edge="1" parent="1" source="pxH5V_kaZkKpWymMHhDQ-6">
          <mxGeometry width="160" relative="1" as="geometry">
            <mxPoint x="420" y="460" as="sourcePoint" />
            <mxPoint x="120" y="450" as="targetPoint" />
          </mxGeometry>
        </mxCell>
        <mxCell id="pxH5V_kaZkKpWymMHhDQ-30" value="Отправка уведомлений на email" style="text;html=1;align=center;verticalAlign=middle;resizable=0;points=[];autosize=1;strokeColor=none;fillColor=none;" vertex="1" parent="1">
          <mxGeometry x="250" y="428" width="200" height="30" as="geometry" />
        </mxCell>
      </root>
    </mxGraphModel>
  </diagram>
</mxfile>
